<svg id="레이어_1" data-name="레이어 1" xmlns="http://www.w3.org/2000/svg" xmlns:xlink="http://www.w3.org/1999/xlink" viewBox="0 0 1629.86 2661"><defs><style>.cls-1,.cls-9{fill:none;}.cls-2{fill:#ffe5ac;}.cls-3{fill:silver;}.cls-4{fill:#b28432;}.cls-5{fill:#414743;}.cls-6{fill:#edd815;}.cls-7{fill:#fff;}.cls-8{clip-path:url(#clip-path);}.cls-9{stroke:#bf1b1b;stroke-miterlimit:10;}.cls-10{font-size:72px;font-family:NanumPen, Nanum Pen Script;}</style><clipPath id="clip-path"><polygon class="cls-1" points="1125 1844.86 1125 2441.58 479.86 2433.45 372.92 2060.49 1125 1844.86"/></clipPath></defs><rect class="cls-2" width="1125" height="2436"/><path class="cls-3" d="M581.71,713.51c.3,21-5.55,43-12.15,43-2.55,0-4.64-3.15-4.64-7a11.46,11.46,0,0,1,1.2-5.25c7.94-8.1,11.54-19.65,13.79-31.35Zm17.4-24.9,8.55,2.55c4.5,1.35,6.6,2.7,6.6,3.6s-2.7,1.65-7.65,2v67.65c0,7,3,9.45,33.75,9.45,15.3,0,22.35-1.5,26.1-6.75,1.5-3.45,3.3-9.6,7.5-30.15h1.8c-1.2,14.25-2,22.35-2,27,0,4.8.75,6,2.55,6.6,1.2.45,2.1,1.2,2.1,2.25,0,1.8-3,4.2-11.85,5.85a229.14,229.14,0,0,1-27,1.35c-34.05,0-39.75-1.2-39.75-15.3v-67.8Zm9.3-26.7c12.9,5,26.55,12.3,32.85,19.8a13.09,13.09,0,0,1,2,6.3c0,3.15-1.65,5.1-3.75,5.1-1.8,0-3.9-1.2-5.7-4.35-2.85-6.3-15.6-18.9-26.1-25.35Zm61.05,45c12,8.25,22.2,22.8,25.5,31.8a18,18,0,0,1,.6,4.65c0,4.8-2.25,7.65-4.5,7.65-1.8,0-3.45-1.65-4-5.1-1.8-12-8.4-25.2-18.75-37.95Z"/><path d="M527.83,689.13c33-18.29,47.25-46.79,47.25-48.89,0-2.55-6.75-7.35-10.35-9.3-.9-.45-1.8-1.35-1.8-2.1s.75-1.2,3-1.2c5.7,0,21.9,7.5,21.9,10.8,0,1-9.3,15.15-10.5,16.95a94.28,94.28,0,0,0,10.8,7.8c8.85,4.65,8.7.45,19.35,12,2.25,2.4,3.15,4.5,3.15,6.15s-1,2.55-2.85,2.55c-1.65,0-4-.9-6.75-3.3-3.9-3.3-17.85-15-26.7-22.05C559,677.14,531.58,692,526.18,692c-.75,0-1-.15-1-.45S526,690.19,527.83,689.13Zm104.25,13.5c5.7.3,7.35,1,7.35,2.1s-2.1,3-2.7,5.25c-1.8,10-4.8,23.7-6,29.1,4.5.75,6.45,2.25,6.45,3.6,0,1.05-1.8,2.1-4.5,2.1-10,.3-40.2,1.05-49.95,1.05-1.05,5.85-3.15,9.15-4.8,9.15-1.35,0-2.4-1.8-2.7-5.85-.45-5-1.2-24.75-2.4-35.85-.3-1.95-.45-3.45-8.7-5.85-1.5-.45-3.15-1-3.15-1.8s1.35-1.5,4.95-2.1a134.19,134.19,0,0,1,16.8,2.1c6.9-.15,32.55-.75,40-1.5,3.6,0,1.65-1.5,7.05-1.5Zm-15.6,38.7a60,60,0,0,0,9.3-2c.45-6.9,1.2-24,1.2-31.35-8.25.6-32,1.05-43.05,1.5-.75,1.05-1.95.75-1.95,2.55l.9,29.7Zm11.4-112.79c0-2.7-4.65-6.15-13-9.3-2.55-.9-3.9-1.8-3.9-2.55q0-1.35,5.4-1.8c.75,0,21.6,2.7,21.6,7.35,0,1-.6,2.4-.6,4.35v42.9c0,6.3-.6,15.3-2.4,20.7-1.35,3.44-3,5.24-4.35,5.24s-2.4-2.1-2.4-6.89Z"/><path class="cls-3" d="M506.54,512.6c-5.55,7.5-10.35,13.95-16.65,19.95l-1.5-1.2c13.5-17.55,26.55-47.1,32.25-65.39l7.65,3.15c2.85,1.35,3.9,2.25,3.9,2.85,0,1.2-3.3,1.5-6.15,1.65-3,7.2-8.4,19.34-12.9,27.14,3,1.5,3.9,2.4,3.9,3.15,0,1.05-1.95,1.35-3.75,1.5V586c.15,2.4.3,4,.3,5.25,0,2.4-.75,2.85-4.05,3.6a11.08,11.08,0,0,1-1.8.3c-1.2,0-1.35-.6-1.35-1.65s.15-2.55.15-4.5Zm52.8-44.09c2.1.9,3.15,1.8,3.15,2.4,0,.9-2,1.35-5.85,1.2-3.3,6.74-6.45,13.19-10,19.34h55.2l7.05-6.45,8.25,6c.9.75,1.35,1.2,1.35,1.65,0,.75-1.35,1.05-3.15,1.05H574c2.1.9,3,1.65,3,2.25,0,.75-1.65,1.35-4.65,1.5V521.6h26.4l6.3-6.15,8.25,5.85c.9.6,1.35,1.2,1.35,1.65,0,.75-1.35,1-3.15,1H572.39v25h26.85l6.15-6.6,8.55,6q1.35,1.13,1.35,1.8c0,.75-1.35,1.2-3.15,1.2H572.39v36.9c0,1.65.3,2.85.3,3.75,0,3.15-5.25,3.3-5.25,3.3-2,0-2-1-1.8-4.35V493.7h-20.4a157,157,0,0,1-24.6,31.65l-1.65-.9a218.33,218.33,0,0,0,31.65-59.24Z"/><path d="M490.68,437.32c3.15-.75,1.95-1.35,7.2-1.35,4.35,0,8.4.3,8.4,2.1,0,1.35-2.25,3.3-3.45,4.8a267.47,267.47,0,0,1-18,22.2,90.14,90.14,0,0,0,8.85,7.95c5.55,4.8,6.45,0,15.6,10.8,2.1,2.7,2.85,4.95,2.85,6.75a2.69,2.69,0,0,1-2.7,3c-1.2,0-3-.9-4.65-2.55-3.3-3.15-12.6-12.6-22.95-23.25-24.75,21.9-46.8,30.45-49.35,30.45-.6,0-.75-.15-.75-.3,0-.45.9-1.35,3-2.55,18.6-10.2,44.85-30.3,57.3-54.15-7.2.3-25,1-30.6,1.35-3,.6-3.3,1.95-5.4,1.95-2.4,0-14.85-4.95-14.85-7.2,0-.45.75-.9,2.1-.9a22.4,22.4,0,0,1,2.55.3,98.4,98.4,0,0,0,18.9,1.5C468.48,438.22,486.63,437.32,490.68,437.32ZM527,509.17c-9.3.45-33.15,1.35-52.05,1.95-5.7.3-6.45,2.55-9.75,2.55-3.9,0-15.3-5.7-15.3-7.35,0-.45.6-.75,2.1-.75a11.41,11.41,0,0,1,2.1.15c5.55.9,13.8,1.2,22.95,1.2,14.55,0,31.5-.75,43.8-1.35,3.75,0,3.45-1.65,7.8-1.65a12.13,12.13,0,0,1,2.25.15c5.7.3,7.2,1.2,7.2,2.25s-1.5,2.85-1.5,4.8c0,20.85,0,29.55-2.4,38.85-1,4.2-3.15,6.74-4.8,6.74-1.35,0-2.4-1.65-2.4-5.4Zm.6-81.15c0-1.5-3.75-4.5-12.9-8.1-2.25-.75-3.45-1.65-3.45-2.4s1.8-1.65,5.4-1.8c7,.6,11.7,2.55,15.75,3.6,4.35,1.65,5.4,2.7,5.4,4.2,0,1.05-.6,2.25-.6,4.05l-.15,40.5c2.1-.15,3.6,0,5.85-.3,7.8-.9,4-4.2,15-4.2,3,0,8.85,0,8.85,4.05,0,1.8-1.65,3.6-4.2,3.75l-25.65.45c-.3,22.65-5.7,25.2-7,25.2s-2.25-1.65-2.25-6Z"/><polygon class="cls-4" points="1125 2661 1125 1503.86 0 1550.26 0 2661 1125 2661"/><rect class="cls-5" x="265.45" y="1829.71" width="220" height="45" rx="9.21" transform="translate(-728.11 318) rotate(-24.27)"/><path class="cls-5" d="M116.1,1941.17h0l-.46.21c-24.51,11-43.62,25.59-51.48,37.87l10.38,23c14.41,2.25,38-2.45,62.47-13.5l.46-.21h0l174.12-78.5-21.37-47.4-135.63,61.14Z"/><rect class="cls-5" x="293.08" y="1861.19" width="12" height="52" rx="2" transform="translate(-749.23 289.7) rotate(-24.27)"/><polygon class="cls-5" points="528.4 1782.7 502.09 1780.31 491.06 1787.47 471.52 1797.66 475.94 1807.45 480.35 1817.25 500.93 1809.35 513.6 1805.83 529.22 1784.53 529.72 1783.2 528.4 1782.7"/><path class="cls-5" d="M528.4,1782.7l-28.51,12.86a2,2,0,0,0-2-.2,2,2,0,1,0,2.8,2l28.51-12.85a1,1,0,0,0-.82-1.83Z"/><polygon class="cls-5" points="119.86 1939.47 137.41 1900.85 214.22 1866.22 219.69 1869.24 219.42 1875.94 153.37 1904.62 143.45 1928.84 119.86 1939.47"/><rect x="273.78" y="1808.66" width="220" height="45" rx="9.21" transform="translate(-718.72 319.56) rotate(-24.27)"/><path d="M124.43,1920.12h0l-.46.21c-24.5,11-43.62,25.59-51.48,37.87l10.38,23c14.41,2.25,38-2.45,62.48-13.5l.45-.21h0L319.92,1889l-21.37-47.4-135.63,61.14Z"/><rect class="cls-6" x="301.41" y="1840.14" width="12" height="52" rx="2" transform="translate(-739.84 291.26) rotate(-24.27)"/><polygon class="cls-6" points="536.73 1761.65 510.42 1759.26 499.39 1766.42 479.86 1776.61 484.27 1786.4 488.69 1796.2 509.26 1788.3 521.93 1784.78 537.55 1763.48 538.06 1762.15 536.73 1761.65"/><path d="M536.73,1761.65l-28.51,12.86a2,2,0,1,0-.34,3.44,2,2,0,0,0,1.16-1.62l28.52-12.85a1,1,0,1,0-.83-1.83Z"/><polygon class="cls-6" points="128.19 1918.42 145.74 1879.8 222.55 1845.17 228.02 1848.19 227.75 1854.89 161.7 1883.57 151.78 1907.79 128.19 1918.42"/><polygon class="cls-5" points="1125 2661 1125 1904.08 366.65 2121.5 521.33 2661 1125 2661"/><polygon class="cls-7" points="1125 2661 1125 1844.86 372.92 2060.49 545.1 2661 1125 2661"/><g class="cls-8"><rect class="cls-9" x="476.95" y="1943.28" width="1095.37" height="118.57" transform="translate(-512.23 359.95) rotate(-16)"/><rect class="cls-9" x="480.9" y="1970.83" width="1095.16" height="90.68" transform="translate(-515.83 361.54) rotate(-16)"/><rect class="cls-9" x="496.29" y="2078.96" width="109.25" height="118.57" transform="translate(-567.97 234.65) rotate(-16)"/><rect class="cls-9" x="602.12" y="2049.01" width="109.25" height="118.57" transform="translate(-555.62 262.65) rotate(-16)"/><rect class="cls-9" x="708.12" y="2019.01" width="109.25" height="118.57" transform="translate(-543.25 290.7) rotate(-16)"/><rect class="cls-9" x="813.12" y="1989.01" width="109.25" height="118.57" transform="translate(-530.91 318.48) rotate(-16)"/><rect class="cls-9" x="918.12" y="1959.01" width="109.25" height="118.57" transform="translate(-518.58 346.26) rotate(-16)"/><rect class="cls-9" x="1023.12" y="1928.01" width="109.25" height="118.57" transform="translate(-505.97 374) rotate(-16)"/><rect class="cls-9" x="1128.12" y="1898.01" width="109.25" height="118.57" transform="translate(-493.63 401.77) rotate(-16)"/><rect class="cls-9" x="1233.12" y="1868.01" width="109.25" height="118.57" transform="translate(-481.3 429.55) rotate(-16)"/><rect class="cls-9" x="1338.12" y="1838.01" width="109.25" height="118.57" transform="translate(-468.96 457.33) rotate(-16)"/><rect class="cls-9" x="1444.12" y="1808.01" width="109.25" height="118.57" transform="translate(-456.59 485.38) rotate(-16)"/><rect class="cls-9" x="538.6" y="2158.53" width="1095.37" height="118.57" transform="translate(-569.17 385.28) rotate(-16)"/><rect class="cls-9" x="542.55" y="2186.09" width="1095.16" height="90.68" transform="translate(-572.77 386.87) rotate(-16)"/><rect class="cls-9" x="557.94" y="2294.21" width="109.25" height="118.57" transform="translate(-624.91 259.97) rotate(-16)"/><rect class="cls-9" x="663.77" y="2264.26" width="109.25" height="118.57" transform="translate(-612.56 287.98) rotate(-16)"/><rect class="cls-9" x="769.77" y="2234.26" width="109.25" height="118.57" transform="translate(-600.18 316.03) rotate(-16)"/><rect class="cls-9" x="874.77" y="2204.26" width="109.25" height="118.57" transform="translate(-587.85 343.81) rotate(-16)"/><rect class="cls-9" x="979.77" y="2174.26" width="109.25" height="118.57" transform="translate(-575.51 371.59) rotate(-16)"/><rect class="cls-9" x="1084.77" y="2143.26" width="109.25" height="118.57" transform="translate(-562.9 399.32) rotate(-16)"/><rect class="cls-9" x="1189.77" y="2113.26" width="109.25" height="118.57" transform="translate(-550.57 427.1) rotate(-16)"/><rect class="cls-9" x="1294.77" y="2083.26" width="109.25" height="118.57" transform="translate(-538.23 454.88) rotate(-16)"/><rect class="cls-9" x="1399.77" y="2053.26" width="109.25" height="118.57" transform="translate(-525.9 482.65) rotate(-16)"/><rect class="cls-9" x="1505.77" y="2023.26" width="109.25" height="118.57" transform="translate(-513.53 510.71) rotate(-16)"/><text class="cls-10" transform="matrix(0.96, -0.28, 0.28, 0.96, 1025.2, 2278.9)">년</text><text class="cls-10" transform="matrix(0.96, -0.28, 0.28, 0.96, 605.5, 2395.51)">2</text><text class="cls-10" transform="matrix(0.96, -0.28, 0.28, 0.96, 712.61, 2362.8)">0</text><text class="cls-10" transform="matrix(0.96, -0.28, 0.28, 0.96, 817.54, 2333.87)">2</text><text class="cls-10" transform="matrix(0.96, -0.28, 0.28, 0.96, 924.54, 2304.87)">2</text><text class="cls-10" transform="matrix(0.96, -0.28, 0.28, 0.96, 756.06, 2123.36)">의</text><text class="cls-10" transform="matrix(0.96, -0.28, 0.28, 0.96, 642.98, 2156.91)">신</text><text class="cls-10" transform="matrix(0.96, -0.28, 0.28, 0.96, 537.82, 2186.49)">당</text></g></svg>