<svg xmlns="http://www.w3.org/2000/svg" viewBox="0 0 1126 932.14"><defs><style>.cls-1{fill:#b28432;}.cls-2{fill:#414743;}.cls-3{fill:#fff;}.cls-4{fill:none;stroke:#bf1b1b;stroke-miterlimit:10;}.cls-5{font-size:72px;font-family:NanumPen, Nanum Pen Script;}.cls-6{fill:#edd815;}</style></defs><g id="레이어_2" data-name="레이어 2"><g id="레이어_1-2" data-name="레이어 1"><polygon class="cls-1" points="1125 932.14 1125 0 0 46.4 0 932.14 1125 932.14"/><polygon class="cls-2" points="1125 932.14 1125 333.22 366.65 550.64 476.03 932.14 1125 932.14"/><polygon class="cls-3" points="1125 932.14 1125 274 372.92 489.63 499.8 932.14 1125 932.14"/><rect class="cls-4" x="603.12" y="485.15" width="109.25" height="118.57" transform="translate(-124.57 202.36) rotate(-16)"/><rect class="cls-4" x="709.12" y="455.15" width="109.25" height="118.57" transform="translate(-112.2 230.41) rotate(-16)"/><rect class="cls-4" x="814.12" y="425.15" width="109.25" height="118.57" transform="translate(-99.87 258.19) rotate(-16)"/><rect class="cls-4" x="919.12" y="395.15" width="109.25" height="118.57" transform="translate(-87.53 285.97) rotate(-16)"/><polygon class="cls-4" points="1125.5 348.4 482.82 532.66 515.5 646.64 1125.5 471.75 1125.5 348.4"/><polygon class="cls-4" points="1125.5 377.62 490.61 559.65 515.6 646.81 1125.5 471.95 1125.5 377.62"/><rect class="cls-4" x="497.29" y="515.1" width="109.25" height="118.57" transform="translate(-136.93 174.35) rotate(-16)"/><polygon class="cls-4" points="1125.5 388.32 1114.91 351.39 1009.89 381.5 1042.57 495.48 1125.5 471.7 1125.5 388.32"/><text class="cls-5" transform="matrix(0.96, -0.28, 0.28, 0.96, 1026.2, 715.05)">년</text><text class="cls-5" transform="matrix(0.96, -0.28, 0.28, 0.96, 606.5, 831.66)">2</text><text class="cls-5" transform="matrix(0.96, -0.28, 0.28, 0.96, 713.61, 798.94)">0</text><text class="cls-5" transform="matrix(0.96, -0.28, 0.28, 0.96, 818.54, 770.01)">2</text><text class="cls-5" transform="matrix(0.96, -0.28, 0.28, 0.96, 925.54, 741.01)">2</text><text class="cls-5" transform="matrix(0.96, -0.28, 0.28, 0.96, 757.06, 559.5)">의</text><text class="cls-5" transform="matrix(0.96, -0.28, 0.28, 0.96, 643.98, 593.05)">신</text><text class="cls-5" transform="matrix(0.96, -0.28, 0.28, 0.96, 538.82, 622.63)">당</text><rect class="cls-4" x="661.12" y="703.32" width="109.25" height="118.57" transform="translate(-182.46 226.8) rotate(-16)"/><rect class="cls-4" x="767.12" y="673.32" width="109.25" height="118.57" transform="translate(-170.08 254.85) rotate(-16)"/><rect class="cls-4" x="872.12" y="643.32" width="109.25" height="118.57" transform="translate(-157.75 282.63) rotate(-16)"/><rect class="cls-4" x="977.12" y="613.32" width="109.25" height="118.57" transform="translate(-145.41 310.4) rotate(-16)"/><rect class="cls-4" x="555.29" y="733.27" width="109.25" height="118.57" transform="translate(-194.81 198.79) rotate(-16)"/><polygon class="cls-4" points="1125.5 583.15 1067.89 599.67 1100.57 713.65 1125.5 706.5 1125.5 583.15"/><polygon class="cls-4" points="1125.5 583.2 540.82 750.83 573.5 864.81 1125.5 706.55 1125.5 583.2"/><polygon class="cls-4" points="1125.5 612.42 548.61 777.82 573.6 864.98 1125.5 706.75 1125.5 612.42"/><rect class="cls-2" x="265.45" y="325.85" width="220" height="45" rx="9.21" transform="translate(-110 185.1) rotate(-24.27)"/><path class="cls-2" d="M116.1,437.31h0l-.46.2C91.13,448.57,72,463.11,64.16,475.4l10.38,23c14.41,2.25,38-2.45,62.47-13.5l.46-.21h0l174.12-78.51-21.37-47.4L154.59,420Z"/><rect class="cls-2" x="293.08" y="357.33" width="12" height="52" rx="2" transform="translate(-131.12 156.8) rotate(-24.27)"/><polygon class="cls-2" points="528.4 278.85 502.09 276.45 491.06 283.61 471.52 293.8 475.94 303.6 480.35 313.39 500.93 305.49 513.6 301.97 529.22 280.67 529.72 279.35 528.4 278.85"/><path class="cls-2" d="M528.4,278.85,499.89,291.7a2,2,0,0,0-2-.2,2,2,0,1,0,2.8,2l28.51-12.85a1,1,0,1,0-.82-1.82Z"/><polygon class="cls-2" points="119.86 435.62 137.41 396.99 214.22 362.36 219.69 365.38 219.42 372.08 153.37 400.76 143.45 424.98 119.86 435.62"/><rect x="273.78" y="304.8" width="220" height="45" rx="9.21" transform="translate(-100.61 186.66) rotate(-24.27)"/><path d="M124.43,416.26h0l-.46.2c-24.5,11-43.62,25.59-51.48,37.88l10.38,23c14.41,2.25,38-2.45,62.48-13.5l.45-.21h0l174.12-78.51-21.37-47.4L162.92,398.91Z"/><rect class="cls-6" x="301.41" y="336.28" width="12" height="52" rx="2" transform="translate(-121.74 158.37) rotate(-24.27)"/><polygon class="cls-6" points="536.73 257.8 510.42 255.4 499.39 262.56 479.86 272.75 484.27 282.55 488.69 292.34 509.26 284.44 521.93 280.92 537.55 259.62 538.06 258.3 536.73 257.8"/><path d="M536.73,257.79l-28.51,12.86a2,2,0,1,0,.82,1.82l28.52-12.85a1,1,0,0,0-.83-1.83Z"/><polygon class="cls-6" points="128.19 414.56 145.74 375.94 222.55 341.31 228.02 344.33 227.75 351.03 161.7 379.71 151.78 403.93 128.19 414.56"/></g></g></svg>