<svg xmlns="http://www.w3.org/2000/svg" viewBox="0 0 1125 1157.14"><defs><style>.cls-1{fill:#b28432;}.cls-2{fill:#414743;}.cls-3{fill:#edd815;}.cls-4{fill:#fff;}.cls-5{fill:none;stroke:#bf1b1b;stroke-miterlimit:10;}.cls-6{font-size:72px;font-family:NanumPen, Nanum Pen Script;}</style></defs><g id="레이어_2" data-name="레이어 2"><g id="레이어_1-2" data-name="레이어 1"><polygon class="cls-1" points="1125 1157.14 1125 0 0 46.4 0 1157.14 1125 1157.14"/><rect class="cls-2" x="265.45" y="325.85" width="220" height="45" rx="9.21" transform="translate(-110 185.1) rotate(-24.27)"/><path class="cls-2" d="M116.1,437.31h0l-.46.2C91.13,448.57,72,463.11,64.16,475.4l10.38,23c14.41,2.25,38-2.45,62.47-13.5l.46-.21h0l174.12-78.51-21.37-47.4L154.59,420Z"/><rect class="cls-2" x="293.08" y="357.33" width="12" height="52" rx="2" transform="translate(-131.12 156.8) rotate(-24.27)"/><polygon class="cls-2" points="528.4 278.85 502.09 276.45 491.06 283.61 471.52 293.8 475.94 303.6 480.35 313.39 500.93 305.49 513.6 301.97 529.22 280.67 529.72 279.35 528.4 278.85"/><path class="cls-2" d="M528.4,278.85,499.89,291.7a2,2,0,0,0-2-.2,2,2,0,1,0,2.8,2l28.51-12.85a1,1,0,1,0-.82-1.82Z"/><polygon class="cls-2" points="119.86 435.62 137.41 396.99 214.22 362.36 219.69 365.38 219.42 372.08 153.37 400.76 143.45 424.98 119.86 435.62"/><rect x="273.78" y="304.8" width="220" height="45" rx="9.21" transform="translate(-100.61 186.66) rotate(-24.27)"/><path d="M124.43,416.26h0l-.46.2c-24.5,11-43.62,25.59-51.48,37.88l10.38,23c14.41,2.25,38-2.45,62.48-13.5l.45-.21h0l174.12-78.51-21.37-47.4L162.92,398.91Z"/><rect class="cls-3" x="301.41" y="336.28" width="12" height="52" rx="2" transform="translate(-121.74 158.37) rotate(-24.27)"/><polygon class="cls-3" points="536.73 257.8 510.42 255.4 499.39 262.56 479.86 272.75 484.27 282.55 488.69 292.34 509.26 284.44 521.93 280.92 537.55 259.62 538.06 258.3 536.73 257.8"/><path d="M536.73,257.79l-28.51,12.86a2,2,0,1,0,.82,1.82l28.52-12.85a1,1,0,0,0-.83-1.83Z"/><polygon class="cls-3" points="128.19 414.56 145.74 375.94 222.55 341.31 228.02 344.33 227.75 351.03 161.7 379.71 151.78 403.93 128.19 414.56"/><polygon class="cls-2" points="1125 1157.14 1125 400.22 366.65 617.64 521.33 1157.14 1125 1157.14"/><polygon class="cls-4" points="1125 1157.14 1125 341 372.92 556.63 545.1 1157.14 1125 1157.14"/><rect class="cls-5" x="602.12" y="545.15" width="109.25" height="118.57" transform="translate(-141.15 204.41) rotate(-16)"/><rect class="cls-5" x="708.12" y="515.15" width="109.25" height="118.57" transform="translate(-128.78 232.46) rotate(-16)"/><rect class="cls-5" x="813.12" y="485.15" width="109.25" height="118.57" transform="translate(-116.44 260.24) rotate(-16)"/><rect class="cls-5" x="918.12" y="455.15" width="109.25" height="118.57" transform="translate(-104.11 288.02) rotate(-16)"/><polygon class="cls-5" points="1124.5 408.4 481.82 592.66 514.5 706.64 1124.5 531.75 1124.5 408.4"/><polygon class="cls-5" points="1124.5 437.62 489.61 619.65 514.6 706.81 1124.5 531.95 1124.5 437.62"/><rect class="cls-5" x="496.29" y="575.1" width="109.25" height="118.57" transform="translate(-153.5 176.4) rotate(-16)"/><polygon class="cls-5" points="1124.5 448.32 1113.91 411.39 1008.89 441.5 1041.57 555.48 1124.5 531.7 1124.5 448.32"/><text class="cls-6" transform="matrix(0.96, -0.28, 0.28, 0.96, 1025.2, 775.05)">년</text><text class="cls-6" transform="matrix(0.96, -0.28, 0.28, 0.96, 605.5, 891.66)">2</text><text class="cls-6" transform="matrix(0.96, -0.28, 0.28, 0.96, 712.61, 858.94)">0</text><text class="cls-6" transform="matrix(0.96, -0.28, 0.28, 0.96, 817.54, 830.01)">2</text><text class="cls-6" transform="matrix(0.96, -0.28, 0.28, 0.96, 924.54, 801.01)">2</text><text class="cls-6" transform="matrix(0.96, -0.28, 0.28, 0.96, 756.06, 619.5)">의</text><text class="cls-6" transform="matrix(0.96, -0.28, 0.28, 0.96, 642.98, 653.05)">신</text><text class="cls-6" transform="matrix(0.96, -0.28, 0.28, 0.96, 537.82, 682.63)">당</text><rect class="cls-5" x="660.12" y="763.32" width="109.25" height="118.57" transform="translate(-199.03 228.84) rotate(-16)"/><rect class="cls-5" x="766.12" y="733.32" width="109.25" height="118.57" transform="translate(-186.66 256.9) rotate(-16)"/><rect class="cls-5" x="871.12" y="703.32" width="109.25" height="118.57" transform="translate(-174.32 284.67) rotate(-16)"/><rect class="cls-5" x="976.12" y="673.32" width="109.25" height="118.57" transform="translate(-161.99 312.45) rotate(-16)"/><rect class="cls-5" x="554.29" y="793.27" width="109.25" height="118.57" transform="translate(-211.39 200.84) rotate(-16)"/><polygon class="cls-5" points="1124.5 643.15 1066.89 659.67 1099.57 773.65 1124.5 766.5 1124.5 643.15"/><polygon class="cls-5" points="1124.5 643.2 539.82 810.83 572.5 924.81 1124.5 766.55 1124.5 643.2"/><polygon class="cls-5" points="1124.5 672.42 547.61 837.82 572.6 924.98 1124.5 766.75 1124.5 672.42"/></g></g></svg>