<svg xmlns="http://www.w3.org/2000/svg" xmlns:xlink="http://www.w3.org/1999/xlink" viewBox="0 0 1629.86 1157.14"><defs><style>.cls-1,.cls-7{fill:none;}.cls-2{fill:#b28432;}.cls-3{fill:#414743;}.cls-4{fill:#edd815;}.cls-5{fill:#fff;}.cls-6{clip-path:url(#clip-path);}.cls-7{stroke:#bf1b1b;stroke-miterlimit:10;}.cls-8{font-size:72px;font-family:NanumPen, Nanum Pen Script;}</style><clipPath id="clip-path"><polygon class="cls-1" points="1125 341 1125 937.72 479.86 929.59 372.92 556.63 1125 341"/></clipPath></defs><g id="레이어_2" data-name="레이어 2"><g id="레이어_1-2" data-name="레이어 1"><polygon class="cls-2" points="1125 1157.14 1125 0 0 46.4 0 1157.14 1125 1157.14"/><rect class="cls-3" x="265.45" y="325.85" width="220" height="45" rx="9.21" transform="translate(-110 185.1) rotate(-24.27)"/><path class="cls-3" d="M116.1,437.31h0l-.46.2C91.13,448.57,72,463.11,64.16,475.4l10.38,23c14.41,2.25,38-2.45,62.47-13.5l.46-.21h0l174.12-78.51-21.37-47.4L154.59,420Z"/><rect class="cls-3" x="293.08" y="357.33" width="12" height="52" rx="2" transform="translate(-131.12 156.8) rotate(-24.27)"/><polygon class="cls-3" points="528.4 278.85 502.09 276.45 491.06 283.61 471.52 293.8 475.94 303.6 480.35 313.39 500.93 305.49 513.6 301.97 529.22 280.67 529.72 279.35 528.4 278.85"/><path class="cls-3" d="M528.4,278.85,499.89,291.7a2,2,0,0,0-2-.2,2,2,0,1,0,2.8,2l28.51-12.85a1,1,0,1,0-.82-1.82Z"/><polygon class="cls-3" points="119.86 435.62 137.41 396.99 214.22 362.36 219.69 365.38 219.42 372.08 153.37 400.76 143.45 424.98 119.86 435.62"/><rect x="273.78" y="304.8" width="220" height="45" rx="9.21" transform="translate(-100.61 186.66) rotate(-24.27)"/><path d="M124.43,416.26h0l-.46.2c-24.5,11-43.62,25.59-51.48,37.88l10.38,23c14.41,2.25,38-2.45,62.48-13.5l.45-.21h0l174.12-78.51-21.37-47.4L162.92,398.91Z"/><rect class="cls-4" x="301.41" y="336.28" width="12" height="52" rx="2" transform="translate(-121.74 158.37) rotate(-24.27)"/><polygon class="cls-4" points="536.73 257.8 510.42 255.4 499.39 262.56 479.86 272.75 484.27 282.55 488.69 292.34 509.26 284.44 521.93 280.92 537.55 259.62 538.06 258.3 536.73 257.8"/><path d="M536.73,257.79l-28.51,12.86a2,2,0,1,0,.82,1.82l28.52-12.85a1,1,0,0,0-.83-1.83Z"/><polygon class="cls-4" points="128.19 414.56 145.74 375.94 222.55 341.31 228.02 344.33 227.75 351.03 161.7 379.71 151.78 403.93 128.19 414.56"/><polygon class="cls-3" points="1125 1157.14 1125 400.22 366.65 617.64 521.33 1157.14 1125 1157.14"/><polygon class="cls-5" points="1125 1157.14 1125 341 372.92 556.63 545.1 1157.14 1125 1157.14"/><g class="cls-6"><rect class="cls-7" x="476.95" y="439.42" width="1095.37" height="118.57" transform="translate(-97.76 301.71) rotate(-16)"/><rect class="cls-7" x="480.9" y="466.98" width="1095.16" height="90.68" transform="translate(-101.36 303.3) rotate(-16)"/><rect class="cls-7" x="496.29" y="575.1" width="109.25" height="118.57" transform="translate(-153.5 176.4) rotate(-16)"/><rect class="cls-7" x="602.12" y="545.15" width="109.25" height="118.57" transform="translate(-141.15 204.41) rotate(-16)"/><rect class="cls-7" x="708.12" y="515.15" width="109.25" height="118.57" transform="translate(-128.78 232.46) rotate(-16)"/><rect class="cls-7" x="813.12" y="485.15" width="109.25" height="118.57" transform="translate(-116.44 260.24) rotate(-16)"/><rect class="cls-7" x="918.12" y="455.15" width="109.25" height="118.57" transform="translate(-104.11 288.02) rotate(-16)"/><rect class="cls-7" x="1023.12" y="424.15" width="109.25" height="118.57" transform="translate(-91.5 315.75) rotate(-16)"/><rect class="cls-7" x="1128.12" y="394.15" width="109.25" height="118.57" transform="translate(-79.16 343.53) rotate(-16)"/><rect class="cls-7" x="1233.12" y="364.15" width="109.25" height="118.57" transform="translate(-66.83 371.31) rotate(-16)"/><rect class="cls-7" x="1338.12" y="334.15" width="109.25" height="118.57" transform="translate(-54.49 399.08) rotate(-16)"/><rect class="cls-7" x="1444.12" y="304.15" width="109.25" height="118.57" transform="translate(-42.12 427.14) rotate(-16)"/><rect class="cls-7" x="538.6" y="654.67" width="1095.37" height="118.57" transform="translate(-154.7 327.04) rotate(-16)"/><rect class="cls-7" x="542.55" y="682.23" width="1095.16" height="90.68" transform="translate(-158.3 328.62) rotate(-16)"/><rect class="cls-7" x="557.94" y="790.35" width="109.25" height="118.57" transform="translate(-210.44 201.73) rotate(-16)"/><rect class="cls-7" x="663.77" y="760.4" width="109.25" height="118.57" transform="translate(-198.09 229.74) rotate(-16)"/><rect class="cls-7" x="769.77" y="730.4" width="109.25" height="118.57" transform="translate(-185.71 257.79) rotate(-16)"/><rect class="cls-7" x="874.77" y="700.4" width="109.25" height="118.57" transform="translate(-173.38 285.57) rotate(-16)"/><rect class="cls-7" x="979.77" y="670.4" width="109.25" height="118.57" transform="translate(-161.04 313.34) rotate(-16)"/><rect class="cls-7" x="1084.77" y="639.4" width="109.25" height="118.57" transform="translate(-148.43 341.08) rotate(-16)"/><rect class="cls-7" x="1189.77" y="609.4" width="109.25" height="118.57" transform="translate(-136.1 368.86) rotate(-16)"/><rect class="cls-7" x="1294.77" y="579.4" width="109.25" height="118.57" transform="translate(-123.76 396.63) rotate(-16)"/><rect class="cls-7" x="1399.77" y="549.4" width="109.25" height="118.57" transform="translate(-111.43 424.41) rotate(-16)"/><rect class="cls-7" x="1505.77" y="519.4" width="109.25" height="118.57" transform="translate(-99.06 452.46) rotate(-16)"/><text class="cls-8" transform="matrix(0.96, -0.28, 0.28, 0.96, 1025.2, 775.05)">년</text><text class="cls-8" transform="matrix(0.96, -0.28, 0.28, 0.96, 605.5, 891.66)">2</text><text class="cls-8" transform="matrix(0.96, -0.28, 0.28, 0.96, 712.61, 858.94)">0</text><text class="cls-8" transform="matrix(0.96, -0.28, 0.28, 0.96, 817.54, 830.01)">2</text><text class="cls-8" transform="matrix(0.96, -0.28, 0.28, 0.96, 924.54, 801.01)">2</text><text class="cls-8" transform="matrix(0.96, -0.28, 0.28, 0.96, 756.06, 619.5)">의</text><text class="cls-8" transform="matrix(0.96, -0.28, 0.28, 0.96, 642.98, 653.05)">신</text><text class="cls-8" transform="matrix(0.96, -0.28, 0.28, 0.96, 537.82, 682.63)">당</text></g></g></g></svg>