<svg xmlns="http://www.w3.org/2000/svg" viewBox="0 0 263.83 364.24"><defs><style>.cls-1{fill:silver;}</style></defs><g id="레이어_2" data-name="레이어 2"><g id="레이어_1-2" data-name="레이어 1"><path class="cls-1" d="M150,297.79c.3,21-5.55,43-12.15,43-2.55,0-4.65-3.15-4.65-7a11.59,11.59,0,0,1,1.2-5.25c8-8.1,11.55-19.65,13.8-31.35Zm17.4-24.9,8.55,2.55c4.5,1.35,6.6,2.7,6.6,3.6s-2.7,1.65-7.65,1.95v67.65c0,7.05,3,9.45,33.75,9.45,15.3,0,22.35-1.5,26.1-6.75,1.5-3.45,3.3-9.6,7.5-30.15H244c-1.2,14.25-1.95,22.35-1.95,27,0,4.8.75,6,2.55,6.6,1.2.45,2.1,1.2,2.1,2.25,0,1.8-3,4.2-11.85,5.85a229.14,229.14,0,0,1-27,1.35c-34,0-39.75-1.2-39.75-15.3v-67.8Zm9.3-26.7c12.9,4.95,26.55,12.3,32.85,19.8a13.09,13.09,0,0,1,1.95,6.3c0,3.15-1.65,5.1-3.75,5.1-1.8,0-3.9-1.2-5.7-4.35-2.85-6.3-15.6-18.9-26.1-25.35Zm61,45c12,8.25,22.2,22.8,25.5,31.8a18,18,0,0,1,.6,4.65c0,4.8-2.25,7.65-4.5,7.65-1.8,0-3.45-1.65-4-5.1-1.8-12-8.4-25.2-18.75-37.95Z"/><path d="M96.1,273.41c33-18.29,47.25-46.79,47.25-48.89,0-2.55-6.75-7.35-10.35-9.3-.9-.45-1.8-1.35-1.8-2.1,0-.6.75-1.2,3-1.2,5.7,0,21.9,7.5,21.9,10.8,0,1.05-9.3,15.15-10.5,16.95a94.28,94.28,0,0,0,10.8,7.8c8.85,4.65,8.7.45,19.35,12,2.25,2.4,3.15,4.5,3.15,6.15s-1.05,2.55-2.85,2.55-4.05-.9-6.75-3.3c-3.9-3.3-17.85-15-26.7-22-15.3,18.59-42.75,33.44-48.15,33.44-.75,0-1-.15-1-.45S94.3,274.46,96.1,273.41Zm104.25,13.5c5.7.3,7.35,1,7.35,2.1s-2.1,3-2.7,5.25c-1.8,10.05-4.8,23.7-6,29.1,4.5.75,6.45,2.25,6.45,3.6,0,1.05-1.8,2.1-4.5,2.1-10,.3-40.2,1.05-49.95,1.05-1.05,5.85-3.15,9.15-4.8,9.15-1.35,0-2.4-1.8-2.7-5.85-.45-5-1.2-24.75-2.4-35.85-.3-1.95-.45-3.45-8.7-5.85-1.5-.45-3.15-1-3.15-1.8s1.35-1.5,4.95-2.1a134.19,134.19,0,0,1,16.8,2.1c6.9-.15,32.55-.75,40.05-1.5,3.6,0,1.65-1.5,7-1.5Zm-15.6,38.7a60,60,0,0,0,9.3-1.95c.45-6.9,1.2-24,1.2-31.35-8.25.6-31.95,1.05-43.05,1.5-.75,1.05-1.95.75-1.95,2.55l.9,29.7Zm11.4-112.79c0-2.7-4.65-6.15-13.05-9.3-2.55-.9-3.9-1.8-3.9-2.55q0-1.35,5.4-1.8c.75,0,21.6,2.7,21.6,7.35,0,1-.6,2.4-.6,4.35v42.9c0,6.29-.6,15.29-2.4,20.69-1.35,3.45-3,5.25-4.35,5.25s-2.4-2.1-2.4-6.9Z"/><path class="cls-1" d="M74.81,96.88c-5.55,7.5-10.35,14-16.65,20l-1.5-1.2c13.5-17.55,26.55-47.1,32.25-65.4l7.65,3.15c2.85,1.35,3.9,2.25,3.9,2.85,0,1.2-3.3,1.5-6.15,1.65-3,7.2-8.4,19.35-12.9,27.15,3,1.5,3.9,2.4,3.9,3.15,0,1-2,1.35-3.75,1.5v80.55c.15,2.4.3,4.05.3,5.25,0,2.4-.75,2.85-4,3.6a11.08,11.08,0,0,1-1.8.3c-1.2,0-1.35-.6-1.35-1.65s.15-2.55.15-4.5Zm52.8-44.1c2.1.9,3.15,1.8,3.15,2.4,0,.9-1.95,1.35-5.85,1.2-3.3,6.75-6.45,13.2-10,19.35h55.2l7.05-6.45,8.25,6c.9.75,1.35,1.2,1.35,1.65,0,.75-1.35,1-3.15,1H142.31c2.1.9,3,1.65,3,2.25s-1.65,1.35-4.65,1.5v24.15h26.4l6.3-6.15,8.25,5.85c.9.6,1.35,1.2,1.35,1.65,0,.75-1.35,1-3.15,1H140.66v25.05h26.85l6.15-6.6,8.55,6q1.35,1.13,1.35,1.8c0,.75-1.35,1.2-3.15,1.2H140.66v36.9c0,1.65.3,2.85.3,3.75,0,3.15-5.25,3.3-5.25,3.3-2,0-2-1.05-1.8-4.35V78h-20.4a157,157,0,0,1-24.6,31.65l-1.65-.9a218.38,218.38,0,0,0,31.65-59.25Z"/><path d="M59,21.6c3.15-.75,1.95-1.35,7.2-1.35,4.35,0,8.4.3,8.4,2.1,0,1.35-2.25,3.3-3.45,4.8a267.47,267.47,0,0,1-18,22.2A90.14,90.14,0,0,0,62,57.3c5.55,4.8,6.45,0,15.6,10.8,2.1,2.7,2.85,5,2.85,6.75a2.69,2.69,0,0,1-2.7,3c-1.2,0-3-.9-4.65-2.55-3.3-3.15-12.6-12.6-22.95-23.25C25.35,74,3.3,82.5.75,82.5c-.6,0-.75-.15-.75-.3,0-.45.9-1.35,3-2.55,18.6-10.2,44.85-30.3,57.3-54.15-7.2.3-25,1.05-30.6,1.35-3,.6-3.3,1.95-5.4,1.95-2.4,0-14.85-4.95-14.85-7.2,0-.45.75-.9,2.1-.9a22.4,22.4,0,0,1,2.55.3A98.4,98.4,0,0,0,33,22.5C36.75,22.5,54.9,21.6,59,21.6Zm36.3,71.85c-9.3.45-33.15,1.35-52,2-5.7.3-6.45,2.55-9.75,2.55-3.9,0-15.3-5.7-15.3-7.35,0-.45.6-.75,2.1-.75a11.41,11.41,0,0,1,2.1.15c5.55.9,13.8,1.2,22.95,1.2,14.55,0,31.5-.75,43.8-1.35,3.75,0,3.45-1.65,7.8-1.65a12.13,12.13,0,0,1,2.25.15c5.7.3,7.2,1.2,7.2,2.25,0,1.2-1.5,2.85-1.5,4.8,0,20.85,0,29.54-2.4,38.84-1,4.2-3.15,6.75-4.8,6.75-1.35,0-2.4-1.65-2.4-5.4Zm.6-81.15c0-1.5-3.75-4.5-12.9-8.1C80.7,3.45,79.5,2.55,79.5,1.8,79.5.9,81.3.15,84.9,0c7,.6,11.7,2.55,15.75,3.6,4.35,1.65,5.4,2.7,5.4,4.2,0,1-.6,2.25-.6,4.05l-.15,40.5c2.1-.15,3.6,0,5.85-.3,7.8-.9,4-4.2,15-4.2,3,0,8.85,0,8.85,4,0,1.8-1.66,3.6-4.21,3.75l-25.64.45c-.3,22.65-5.7,25.2-7.05,25.2-1.2,0-2.25-1.65-2.25-6Z"/></g></g></svg>